<?xml version="1.0" encoding="UTF-8"?>
<svg width="2380px" height="1684px" viewBox="0 0 2380 1684" version="1.1" xmlns="http://www.w3.org/2000/svg" xmlns:xlink="http://www.w3.org/1999/xlink">
    <title>16 Stave Manuscript</title>
    <g id="Score-4-stave" stroke="none" stroke-width="1" fill="none" fill-rule="evenodd" stroke-linecap="square">
        <path d="M80,1532.9317 L2300,1532.9317" id="Stroke-1" stroke="#000000" stroke-width="0.5"></path>
        <path d="M80,1548.9317 L2300,1548.9317" id="Stroke-3" stroke="#000000" stroke-width="0.5"></path>
        <path d="M80,1540.9317 L2300,1540.9317" id="Stroke-5" stroke="#000000" stroke-width="0.5"></path>
        <path d="M80,1556.9317 L2300,1556.9317" id="Stroke-7" stroke="#000000" stroke-width="0.5"></path>
        <path d="M80,1564.9317 L2300,1564.9317" id="Stroke-9" stroke="#000000" stroke-width="0.5"></path>
        <path d="M80,1450.9507 L2300,1450.9507" id="Stroke-11" stroke="#000000" stroke-width="0.5"></path>
        <path d="M80,1466.9507 L2300,1466.9507" id="Stroke-13" stroke="#000000" stroke-width="0.5"></path>
        <path d="M80,1458.9507 L2300,1458.9507" id="Stroke-15" stroke="#000000" stroke-width="0.5"></path>
        <path d="M80,1474.9507 L2300,1474.9507" id="Stroke-17" stroke="#000000" stroke-width="0.5"></path>
        <path d="M80,1482.9507 L2300,1482.9507" id="Stroke-19" stroke="#000000" stroke-width="0.5"></path>
        <path d="M80,1368.9697 L2300,1368.9697" id="Stroke-21" stroke="#000000" stroke-width="0.5"></path>
        <path d="M80,1384.9697 L2300,1384.9697" id="Stroke-23" stroke="#000000" stroke-width="0.5"></path>
        <path d="M80,1376.9697 L2300,1376.9697" id="Stroke-25" stroke="#000000" stroke-width="0.5"></path>
        <path d="M80,1392.9697 L2300,1392.9697" id="Stroke-27" stroke="#000000" stroke-width="0.5"></path>
        <path d="M80,1400.9697 L2300,1400.9697" id="Stroke-29" stroke="#000000" stroke-width="0.5"></path>
        <path d="M80,1286.9887 L2300,1286.9887" id="Stroke-31" stroke="#000000" stroke-width="0.5"></path>
        <path d="M80,1302.9887 L2300,1302.9887" id="Stroke-33" stroke="#000000" stroke-width="0.5"></path>
        <path d="M80,1294.9887 L2300,1294.9887" id="Stroke-35" stroke="#000000" stroke-width="0.5"></path>
        <path d="M80,1310.9887 L2300,1310.9887" id="Stroke-37" stroke="#000000" stroke-width="0.5"></path>
        <path d="M80,1318.9887 L2300,1318.9887" id="Stroke-39" stroke="#000000" stroke-width="0.5"></path>
        <path d="M80,1157.0188 L2300,1157.0188" id="Stroke-41" stroke="#000000" stroke-width="0.5"></path>
        <path d="M80,1173.0188 L2300,1173.0188" id="Stroke-43" stroke="#000000" stroke-width="0.5"></path>
        <path d="M80,1165.0188 L2300,1165.0188" id="Stroke-45" stroke="#000000" stroke-width="0.5"></path>
        <path d="M80,1181.0188 L2300,1181.0188" id="Stroke-47" stroke="#000000" stroke-width="0.5"></path>
        <path d="M80,1189.0188 L2300,1189.0188" id="Stroke-49" stroke="#000000" stroke-width="0.5"></path>
        <path d="M80,1075.0378 L2300,1075.0378" id="Stroke-51" stroke="#000000" stroke-width="0.5"></path>
        <path d="M80,1091.0378 L2300,1091.0378" id="Stroke-53" stroke="#000000" stroke-width="0.5"></path>
        <path d="M80,1083.0378 L2300,1083.0378" id="Stroke-55" stroke="#000000" stroke-width="0.5"></path>
        <path d="M80,1099.0378 L2300,1099.0378" id="Stroke-57" stroke="#000000" stroke-width="0.5"></path>
        <path d="M80,1107.0378 L2300,1107.0378" id="Stroke-59" stroke="#000000" stroke-width="0.5"></path>
        <path d="M80,993.0568 L2300,993.0568" id="Stroke-61" stroke="#000000" stroke-width="0.5"></path>
        <path d="M80,1009.0568 L2300,1009.0568" id="Stroke-63" stroke="#000000" stroke-width="0.5"></path>
        <path d="M80,1001.0568 L2300,1001.0568" id="Stroke-65" stroke="#000000" stroke-width="0.5"></path>
        <path d="M80,1017.0568 L2300,1017.0568" id="Stroke-67" stroke="#000000" stroke-width="0.5"></path>
        <path d="M80,1025.0568 L2300,1025.0568" id="Stroke-69" stroke="#000000" stroke-width="0.5"></path>
        <path d="M80,911.0758 L2300,911.0758" id="Stroke-71" stroke="#000000" stroke-width="0.5"></path>
        <path d="M80,927.0758 L2300,927.0758" id="Stroke-73" stroke="#000000" stroke-width="0.5"></path>
        <path d="M80,919.0758 L2300,919.0758" id="Stroke-75" stroke="#000000" stroke-width="0.5"></path>
        <path d="M80,935.0758 L2300,935.0758" id="Stroke-77" stroke="#000000" stroke-width="0.5"></path>
        <path d="M80,943.0758 L2300,943.0758" id="Stroke-79" stroke="#000000" stroke-width="0.5"></path>
        <path d="M80,781.1059 L2300,781.1059" id="Stroke-81" stroke="#000000" stroke-width="0.5"></path>
        <path d="M80,797.1059 L2300,797.1059" id="Stroke-83" stroke="#000000" stroke-width="0.5"></path>
        <path d="M80,789.1059 L2300,789.1059" id="Stroke-85" stroke="#000000" stroke-width="0.5"></path>
        <path d="M80,805.1059 L2300,805.1059" id="Stroke-87" stroke="#000000" stroke-width="0.5"></path>
        <path d="M80,813.1059 L2300,813.1059" id="Stroke-89" stroke="#000000" stroke-width="0.5"></path>
        <path d="M80,699.1249 L2300,699.1249" id="Stroke-91" stroke="#000000" stroke-width="0.5"></path>
        <path d="M80,715.1249 L2300,715.1249" id="Stroke-93" stroke="#000000" stroke-width="0.5"></path>
        <path d="M80,707.1249 L2300,707.1249" id="Stroke-95" stroke="#000000" stroke-width="0.5"></path>
        <path d="M80,723.1249 L2300,723.1249" id="Stroke-97" stroke="#000000" stroke-width="0.5"></path>
        <path d="M80,731.1249 L2300,731.1249" id="Stroke-99" stroke="#000000" stroke-width="0.5"></path>
        <path d="M80,617.144 L2300,617.144" id="Stroke-101" stroke="#000000" stroke-width="0.5"></path>
        <path d="M80,633.144 L2300,633.144" id="Stroke-103" stroke="#000000" stroke-width="0.5"></path>
        <path d="M80,625.144 L2300,625.144" id="Stroke-105" stroke="#000000" stroke-width="0.5"></path>
        <path d="M80,641.144 L2300,641.144" id="Stroke-107" stroke="#000000" stroke-width="0.5"></path>
        <path d="M80,649.144 L2300,649.144" id="Stroke-109" stroke="#000000" stroke-width="0.5"></path>
        <path d="M80,535.163 L2300,535.163" id="Stroke-111" stroke="#000000" stroke-width="0.5"></path>
        <path d="M80,551.163 L2300,551.163" id="Stroke-113" stroke="#000000" stroke-width="0.5"></path>
        <path d="M80,543.163 L2300,543.163" id="Stroke-115" stroke="#000000" stroke-width="0.5"></path>
        <path d="M80,559.163 L2300,559.163" id="Stroke-117" stroke="#000000" stroke-width="0.5"></path>
        <path d="M80,567.163 L2300,567.163" id="Stroke-119" stroke="#000000" stroke-width="0.5"></path>
        <path d="M80,405.193 L2300,405.193" id="Stroke-121" stroke="#000000" stroke-width="0.5"></path>
        <path d="M80,421.193 L2300,421.193" id="Stroke-123" stroke="#000000" stroke-width="0.5"></path>
        <path d="M80,413.193 L2300,413.193" id="Stroke-125" stroke="#000000" stroke-width="0.5"></path>
        <path d="M80,429.193 L2300,429.193" id="Stroke-127" stroke="#000000" stroke-width="0.5"></path>
        <path d="M80,437.193 L2300,437.193" id="Stroke-129" stroke="#000000" stroke-width="0.5"></path>
        <path d="M80,323.212 L2300,323.212" id="Stroke-131" stroke="#000000" stroke-width="0.5"></path>
        <path d="M80,339.212 L2300,339.212" id="Stroke-133" stroke="#000000" stroke-width="0.5"></path>
        <path d="M80,331.212 L2300,331.212" id="Stroke-135" stroke="#000000" stroke-width="0.5"></path>
        <path d="M80,347.212 L2300,347.212" id="Stroke-137" stroke="#000000" stroke-width="0.5"></path>
        <path d="M80,355.212 L2300,355.212" id="Stroke-139" stroke="#000000" stroke-width="0.5"></path>
        <path d="M80,241.231 L2300,241.231" id="Stroke-141" stroke="#000000" stroke-width="0.5"></path>
        <path d="M80,257.231 L2300,257.231" id="Stroke-143" stroke="#000000" stroke-width="0.5"></path>
        <path d="M80,249.231 L2300,249.231" id="Stroke-145" stroke="#000000" stroke-width="0.5"></path>
        <path d="M80,265.231 L2300,265.231" id="Stroke-147" stroke="#000000" stroke-width="0.5"></path>
        <path d="M80,273.231 L2300,273.231" id="Stroke-149" stroke="#000000" stroke-width="0.5"></path>
        <path d="M80,159.25 L2300,159.25" id="Stroke-151" stroke="#000000" stroke-width="0.5"></path>
        <path d="M80,175.25 L2300,175.25" id="Stroke-153" stroke="#000000" stroke-width="0.5"></path>
        <path d="M80,167.25 L2300,167.25" id="Stroke-155" stroke="#000000" stroke-width="0.5"></path>
        <path d="M80,183.25 L2300,183.25" id="Stroke-157" stroke="#000000" stroke-width="0.5"></path>
        <path d="M80,191.25 L2300,191.25" id="Stroke-159" stroke="#000000" stroke-width="0.5"></path>
    </g>
</svg>
