<?xml version="1.0" encoding="UTF-8"?>
<svg width="1191px" height="842px" viewBox="0 0 1191 842" version="1.1" xmlns="http://www.w3.org/2000/svg" xmlns:xlink="http://www.w3.org/1999/xlink">
    <title>A3</title>
    <defs>
        <g id="scale">
            <path d="M301.380045,89.6251531 C300.091038,89.6251531 299.024478,89.4033234 298.135431,88.9144834 C297.068871,88.2918297 296.535714,87.4034 296.535714,86.2032731 C296.535714,84.3365462 297.646591,82.4258114 299.957841,80.3812628 C302.179903,78.4259028 304.224452,77.4482228 306.09087,77.4482228 C309.646502,77.4482228 311.424349,78.8254924 311.424349,81.5807107 C311.424349,83.4480548 310.224284,85.3141645 307.735458,87.09232 C305.468833,88.7812869 303.335405,89.6251531 301.380045,89.6251531 Z" id="head[1]-I" fill="#000000" fill-rule="nonzero"></path>
            <path d="M379.84433,83.8733057 C378.555323,83.8733057 377.488763,83.651476 376.599717,83.162636 C375.533157,82.5399822 375,81.6515525 375,80.4514257 C375,78.5846988 376.110877,76.6739639 378.422127,74.6294153 C380.644189,72.6740553 382.688737,71.6963753 384.555156,71.6963753 C388.110788,71.6963753 389.888634,73.073645 389.888634,75.8288633 C389.888634,77.6962074 388.688569,79.562317 386.199744,81.3404725 C383.933119,83.0294394 381.79969,83.8733057 379.84433,83.8733057 Z" id="head[1]-II" fill="#000000" fill-rule="nonzero"></path>
            <path d="M458.308616,78.1214582 C457.019609,78.1214582 455.953049,77.8996285 455.064002,77.4107885 C453.997442,76.7881348 453.464286,75.8997051 453.464286,74.6995782 C453.464286,72.8328513 454.575162,70.9221165 456.886413,68.8775679 C459.108474,66.9222079 461.153023,65.9445279 463.019441,65.9445279 C466.575073,65.9445279 468.35292,67.3217975 468.35292,70.0770158 C468.35292,71.9443599 467.152855,73.8104696 464.66403,75.5886251 C462.397405,77.277592 460.263976,78.1214582 458.308616,78.1214582 Z" id="head[1]-III" fill="#000000" fill-rule="nonzero"></path>
            <path d="M536.772902,72.3696107 C535.483895,72.3696107 534.417335,72.1477811 533.528288,71.6589411 C532.461728,71.0362873 531.928571,70.1478576 531.928571,68.9477307 C531.928571,67.0810038 533.039448,65.170269 535.350698,63.1257204 C537.57276,61.1703604 539.617309,60.1926804 541.483727,60.1926804 C545.039359,60.1926804 546.817206,61.5699501 546.817206,64.3251683 C546.817206,66.1925125 545.617141,68.0586221 543.128316,69.8367776 C540.86169,71.5257445 538.728262,72.3696107 536.772902,72.3696107 Z" id="head[1]-IV" fill="#000000" fill-rule="nonzero"></path>
            <path d="M615.237187,66.6177633 C613.948181,66.6177633 612.881621,66.3959336 611.992574,65.9070936 C610.926014,65.2844398 610.392857,64.3960102 610.392857,63.1958833 C610.392857,61.3291564 611.503734,59.4184216 613.814984,57.3738729 C616.037046,55.4185129 618.081594,54.4408329 619.948013,54.4408329 C623.503645,54.4408329 625.281492,55.8181026 625.281492,58.5733209 C625.281492,60.440665 624.081426,62.3067747 621.592601,64.0849302 C619.325976,65.7738971 617.192547,66.6177633 615.237187,66.6177633 Z" id="head[1]-V" fill="#000000" fill-rule="nonzero"></path>
            <path d="M693.701473,60.8659158 C692.412466,60.8659158 691.345906,60.6440861 690.456859,60.1552461 C689.390299,59.5325924 688.857143,58.6441627 688.857143,57.4440358 C688.857143,55.5773089 689.968019,53.6665741 692.27927,51.6220255 C694.501331,49.6666655 696.54588,48.6889855 698.412298,48.6889855 C701.96793,48.6889855 703.745777,50.0662551 703.745777,52.8214734 C703.745777,54.6888175 702.545712,56.5549272 700.056887,58.3330827 C697.790262,60.0220496 695.656833,60.8659158 693.701473,60.8659158 Z" id="head[1]-VI" fill="#000000" fill-rule="nonzero"></path>
            <path d="M772.165759,55.1140684 C770.876752,55.1140684 769.810192,54.8922387 768.921145,54.4033987 C767.854585,53.7807449 767.321429,52.8923152 767.321429,51.6921884 C767.321429,49.8254615 768.432305,47.9147266 770.743555,45.870178 C772.965617,43.914818 775.010166,42.937138 776.876584,42.937138 C780.432216,42.937138 782.210063,44.3144077 782.210063,47.069626 C782.210063,48.9369701 781.009998,50.8030797 778.521173,52.5812352 C776.254548,54.2702021 774.121119,55.1140684 772.165759,55.1140684 Z" id="head[1]-copy-5" fill="#000000" fill-rule="nonzero"></path>
            <path d="M850.630045,49.3622209 C849.341038,49.3622209 848.274478,49.1403912 847.385431,48.6515512 C846.318871,48.0288975 845.785714,47.1404678 845.785714,45.9403409 C845.785714,44.073614 846.896591,42.1628792 849.207841,40.1183306 C851.429903,38.1629706 853.474452,37.1852906 855.34087,37.1852906 C858.896502,37.1852906 860.674349,38.5625602 860.674349,41.3177785 C860.674349,43.1851226 859.474284,45.0512323 856.985458,46.8293878 C854.718833,48.5183547 852.585405,49.3622209 850.630045,49.3622209 Z" id="head[1]-copy-6" fill="#000000" fill-rule="nonzero"></path>
        </g>
    </defs>

    <g id="A3" stroke="none" stroke-width="1" fill="none" fill-rule="evenodd">
        <g id="A3-4-stave" transform="translate(55.000000, 151.000000)">
            <g id="Scale" transform="translate(0.000000, 0.892090)">
                <line x1="0" y1="26.5097656" x2="1080" y2="26.5097656" id="Line" stroke="#000000" fill="#000000" fill-rule="nonzero" stroke-linecap="square"></line>
                <line x1="0" y1="37.729707" x2="1080" y2="37.729707" id="Line" stroke="#000000" fill="#000000" fill-rule="nonzero" stroke-linecap="square"></line>
                <line x1="0" y1="48.9445508" x2="1080" y2="48.9445508" id="Line" stroke="#000000" fill="#000000" fill-rule="nonzero" stroke-linecap="square"></line>
                <line x1="0" y1="60.1593945" x2="1080" y2="60.1593945" id="Line" stroke="#000000" fill="#000000" fill-rule="nonzero" stroke-linecap="square"></line>
                <line x1="0" y1="71.3742383" x2="1080" y2="71.3742383" id="Line" stroke="#000000" fill="#000000" fill-rule="nonzero" stroke-linecap="square"></line>
                <path d="M38.5106141,54.9960628 C38.5106141,56.2850697 38.2884758,58.1961131 37.8439523,60.6848765 C37.3994289,63.3071452 36.9552141,65.1293086 36.5106289,66.1961772 C35.2662472,69.1292172 33.4884003,71.6625441 31.1328334,73.7070927 C30.5551134,74.2402493 29.5328082,74.9514744 28.1552299,75.8848379 C28.0663499,75.9737179 27.9774082,76.0180344 27.9330917,76.0626596 C27.9330917,76.0626596 28.0662882,76.7293213 28.3329899,78.1515248 C28.6886334,80.1957648 28.8661465,81.7514734 28.8661465,82.9069751 C28.8661465,85.262542 28.5551282,87.795622 27.9330917,90.5068323 C27.0886082,94.3289192 25.9328596,96.1956461 24.5109648,96.1956461 C24.0218162,96.1956461 23.6219179,95.4401044 23.3551544,93.8847044 C23.1330162,92.8178358 23.0441362,91.7512758 23.0441362,90.684654 C25.1775648,87.0400803 26.2884413,83.6179534 26.2884413,80.4182117 C26.2884413,79.9736882 26.1995613,79.351343 26.1106196,78.6403648 C25.9327979,77.6623762 25.7552848,77.1292813 25.5328996,77.1292813 C25.3550779,77.1292813 25.0886848,77.1735979 24.7330413,77.2624779 C24.4220231,77.3513579 24.1553213,77.4402996 24.0663796,77.4402996 C23.0441362,77.6181213 21.932951,77.6624379 20.7774493,77.6624379 C16.1551955,77.6624379 12.6441886,76.1516013 10.2443052,73.0848093 C8.06656,70.3292824 7,66.5961372 7,61.8406869 C7,58.5071314 7.97768,53.8406228 9.93328689,47.7961655 C10.6888286,45.4852238 11.6665086,42.9075187 12.7776938,40.0631118 C13.9331955,37.3519014 15.0443807,34.5964363 16.1998207,31.8409094 C18.1997441,27.0411425 19.1774241,24.4631904 19.1331076,24.1967356 L16.3775807,1.79681532 C16.6442824,0.685938767 17.2220641,0.107910156 17.9776058,0.107910156 C18.3329407,0.107910156 18.9996024,0.463553601 19.9775293,1.1301536 C23.8884962,3.93024393 25.8441648,8.59681427 25.8441648,15.1743663 C25.8441648,18.3744167 24.8219213,22.4188887 22.777311,27.3521608 C22.288471,28.5965425 22.0217693,29.2188877 22.0217693,29.2188877 C22.0217693,30.2408842 22.288471,33.7518911 22.777311,39.7074683 C23.3107762,45.7961804 23.6217944,49.0408559 23.7995544,49.3961907 C24.8217979,48.2853142 26.0216162,47.3519507 27.4438196,46.596409 C29.0438448,45.7962421 30.5106734,45.3520273 31.8882517,45.3520273 C36.2885523,45.3519655 38.5106141,48.5962707 38.5106141,54.9960628 Z M21.755191,50.9072742 L20.2441076,33.974338 C18.0220458,38.90761 16.0221224,43.6630604 14.2442755,48.2852524 C11.4444938,55.4851497 10.0665452,60.15172 10.0665452,62.19596 C10.0665452,64.9514869 11.1331052,66.8182138 13.2665955,67.7515772 C13.3109121,67.7958938 13.8000607,67.9737155 14.7331155,68.2850424 C14.7331155,63.8406103 16.2441989,59.2183565 19.3110527,54.4183428 C19.8887727,53.6627393 20.688631,52.5072993 21.755191,50.9072742 Z M24.1996996,68.0625955 C23.8886813,65.8405338 23.5330379,62.4184069 23.0441979,57.8850331 C22.2443396,58.7737714 21.1331544,60.1959748 19.6663258,62.1516434 C18.1552424,64.7293486 17.4442641,66.9070938 17.4442641,68.6403155 C17.8887876,68.8181372 18.4665076,68.8627624 19.1331693,68.8627624 C20.110911,68.8627624 21.7998162,68.5960607 24.1996996,68.0625955 Z M22.8221213,14.285628 C22.8221213,13.707908 22.5107944,12.9523046 21.8887579,12.0635663 C21.2664127,11.1745194 20.7332562,10.7302429 20.2441076,10.7302429 C19.8887727,10.7302429 19.710951,11.0855777 19.710951,11.7522394 C19.710951,15.0854863 20.0665944,18.6854349 20.777511,22.5078304 C21.1774093,21.1299435 21.6219944,19.7523035 22.0218927,18.3744167 C22.5553579,16.5522532 22.8221213,15.1743663 22.8221213,14.285628 Z M35.2663089,54.8185497 C35.2663089,54.1962045 34.7774689,53.6627393 33.888422,53.2185245 C33.1328803,52.862881 32.421902,52.6850593 31.7106768,52.6850593 C30.866502,52.6850593 29.6218117,53.1738993 27.8442734,54.0629462 C25.9329213,55.0849428 24.9998665,55.9739897 24.9998665,56.6849062 C24.9998665,57.9739131 25.1330631,59.7071348 25.3552013,61.8405634 C25.6219031,64.5514652 25.7554082,66.2846869 25.8443499,67.0402286 C27.6218882,66.418192 29.6218117,64.6849703 31.844182,61.8405634 C34.1108072,58.9962183 35.2663089,56.6406514 35.2663089,54.8185497 Z" id="clef[treble]" fill="#000000" fill-rule="nonzero"></path>
                <use href="#scale" transform="translate(-103 -12)"></use>
                <line x1="1079.5" y1="26.1079102" x2="1079.5" y2="71.7079102" id="Line-2" stroke="#000000" stroke-width="2"></line>
            </g>
            <g id="Scale" transform="translate(0.000000, 178.225423)">
                <line x1="0" y1="26.5097656" x2="1080" y2="26.5097656" id="Line" stroke="#000000" fill="#000000" fill-rule="nonzero" stroke-linecap="square"></line>
                <line x1="189.5" y1="83.5844141" x2="213.5" y2="83.5844141" id="Line-Copy-3" stroke="#000000" fill="#000000" fill-rule="nonzero" stroke-linecap="square"></line>
                <line x1="292" y1="83.5844141" x2="265" y2="83.5844141" id="Line-Copy-7" stroke="#000000" fill="#000000" fill-rule="nonzero" stroke-linecap="square"></line>
                <line x1="0" y1="37.729707" x2="1080" y2="37.729707" id="Line" stroke="#000000" fill="#000000" fill-rule="nonzero" stroke-linecap="square"></line>
                <line x1="0" y1="48.9445508" x2="1080" y2="48.9445508" id="Line" stroke="#000000" fill="#000000" fill-rule="nonzero" stroke-linecap="square"></line>
                <line x1="0" y1="60.1593945" x2="1080" y2="60.1593945" id="Line" stroke="#000000" fill="#000000" fill-rule="nonzero" stroke-linecap="square"></line>
                <line x1="0" y1="71.3742383" x2="1080" y2="71.3742383" id="Line" stroke="#000000" fill="#000000" fill-rule="nonzero" stroke-linecap="square"></line>
                <path d="M38.5106141,54.9960628 C38.5106141,56.2850697 38.2884758,58.1961131 37.8439523,60.6848765 C37.3994289,63.3071452 36.9552141,65.1293086 36.5106289,66.1961772 C35.2662472,69.1292172 33.4884003,71.6625441 31.1328334,73.7070927 C30.5551134,74.2402493 29.5328082,74.9514744 28.1552299,75.8848379 C28.0663499,75.9737179 27.9774082,76.0180344 27.9330917,76.0626596 C27.9330917,76.0626596 28.0662882,76.7293213 28.3329899,78.1515248 C28.6886334,80.1957648 28.8661465,81.7514734 28.8661465,82.9069751 C28.8661465,85.262542 28.5551282,87.795622 27.9330917,90.5068323 C27.0886082,94.3289192 25.9328596,96.1956461 24.5109648,96.1956461 C24.0218162,96.1956461 23.6219179,95.4401044 23.3551544,93.8847044 C23.1330162,92.8178358 23.0441362,91.7512758 23.0441362,90.684654 C25.1775648,87.0400803 26.2884413,83.6179534 26.2884413,80.4182117 C26.2884413,79.9736882 26.1995613,79.351343 26.1106196,78.6403648 C25.9327979,77.6623762 25.7552848,77.1292813 25.5328996,77.1292813 C25.3550779,77.1292813 25.0886848,77.1735979 24.7330413,77.2624779 C24.4220231,77.3513579 24.1553213,77.4402996 24.0663796,77.4402996 C23.0441362,77.6181213 21.932951,77.6624379 20.7774493,77.6624379 C16.1551955,77.6624379 12.6441886,76.1516013 10.2443052,73.0848093 C8.06656,70.3292824 7,66.5961372 7,61.8406869 C7,58.5071314 7.97768,53.8406228 9.93328689,47.7961655 C10.6888286,45.4852238 11.6665086,42.9075187 12.7776938,40.0631118 C13.9331955,37.3519014 15.0443807,34.5964363 16.1998207,31.8409094 C18.1997441,27.0411425 19.1774241,24.4631904 19.1331076,24.1967356 L16.3775807,1.79681532 C16.6442824,0.685938767 17.2220641,0.107910156 17.9776058,0.107910156 C18.3329407,0.107910156 18.9996024,0.463553601 19.9775293,1.1301536 C23.8884962,3.93024393 25.8441648,8.59681427 25.8441648,15.1743663 C25.8441648,18.3744167 24.8219213,22.4188887 22.777311,27.3521608 C22.288471,28.5965425 22.0217693,29.2188877 22.0217693,29.2188877 C22.0217693,30.2408842 22.288471,33.7518911 22.777311,39.7074683 C23.3107762,45.7961804 23.6217944,49.0408559 23.7995544,49.3961907 C24.8217979,48.2853142 26.0216162,47.3519507 27.4438196,46.596409 C29.0438448,45.7962421 30.5106734,45.3520273 31.8882517,45.3520273 C36.2885523,45.3519655 38.5106141,48.5962707 38.5106141,54.9960628 Z M21.755191,50.9072742 L20.2441076,33.974338 C18.0220458,38.90761 16.0221224,43.6630604 14.2442755,48.2852524 C11.4444938,55.4851497 10.0665452,60.15172 10.0665452,62.19596 C10.0665452,64.9514869 11.1331052,66.8182138 13.2665955,67.7515772 C13.3109121,67.7958938 13.8000607,67.9737155 14.7331155,68.2850424 C14.7331155,63.8406103 16.2441989,59.2183565 19.3110527,54.4183428 C19.8887727,53.6627393 20.688631,52.5072993 21.755191,50.9072742 Z M24.1996996,68.0625955 C23.8886813,65.8405338 23.5330379,62.4184069 23.0441979,57.8850331 C22.2443396,58.7737714 21.1331544,60.1959748 19.6663258,62.1516434 C18.1552424,64.7293486 17.4442641,66.9070938 17.4442641,68.6403155 C17.8887876,68.8181372 18.4665076,68.8627624 19.1331693,68.8627624 C20.110911,68.8627624 21.7998162,68.5960607 24.1996996,68.0625955 Z M22.8221213,14.285628 C22.8221213,13.707908 22.5107944,12.9523046 21.8887579,12.0635663 C21.2664127,11.1745194 20.7332562,10.7302429 20.2441076,10.7302429 C19.8887727,10.7302429 19.710951,11.0855777 19.710951,11.7522394 C19.710951,15.0854863 20.0665944,18.6854349 20.777511,22.5078304 C21.1774093,21.1299435 21.6219944,19.7523035 22.0218927,18.3744167 C22.5553579,16.5522532 22.8221213,15.1743663 22.8221213,14.285628 Z M35.2663089,54.8185497 C35.2663089,54.1962045 34.7774689,53.6627393 33.888422,53.2185245 C33.1328803,52.862881 32.421902,52.6850593 31.7106768,52.6850593 C30.866502,52.6850593 29.6218117,53.1738993 27.8442734,54.0629462 C25.9329213,55.0849428 24.9998665,55.9739897 24.9998665,56.6849062 C24.9998665,57.9739131 25.1330631,59.7071348 25.3552013,61.8405634 C25.6219031,64.5514652 25.7554082,66.2846869 25.8443499,67.0402286 C27.6218882,66.418192 29.6218117,64.6849703 31.844182,61.8405634 C34.1108072,58.9962183 35.2663089,56.6406514 35.2663089,54.8185497 Z" id="clef[treble]" fill="#000000" fill-rule="nonzero"></path>
                <use href="#scale" transform="translate(-103 6)"></use>
                <line x1="1079.5" y1="26.1079102" x2="1079.5" y2="71.7079102" id="Line-2" stroke="#000000" stroke-width="2"></line>
            </g>
            <g id="Scale" transform="translate(0.000000, 355.558757)">
                <line x1="0" y1="26.5097656" x2="1080" y2="26.5097656" id="Line" stroke="#000000" fill="#000000" fill-rule="nonzero" stroke-linecap="square"></line>
                <line x1="0" y1="37.729707" x2="1080" y2="37.729707" id="Line" stroke="#000000" fill="#000000" fill-rule="nonzero" stroke-linecap="square"></line>
                <line x1="0" y1="48.9445508" x2="1080" y2="48.9445508" id="Line" stroke="#000000" fill="#000000" fill-rule="nonzero" stroke-linecap="square"></line>
                <line x1="0" y1="60.1593945" x2="1080" y2="60.1593945" id="Line" stroke="#000000" fill="#000000" fill-rule="nonzero" stroke-linecap="square"></line>
                <line x1="0" y1="71.3742383" x2="1080" y2="71.3742383" id="Line" stroke="#000000" fill="#000000" fill-rule="nonzero" stroke-linecap="square"></line>
                <path d="M38.5106141,54.9960628 C38.5106141,56.2850697 38.2884758,58.1961131 37.8439523,60.6848765 C37.3994289,63.3071452 36.9552141,65.1293086 36.5106289,66.1961772 C35.2662472,69.1292172 33.4884003,71.6625441 31.1328334,73.7070927 C30.5551134,74.2402493 29.5328082,74.9514744 28.1552299,75.8848379 C28.0663499,75.9737179 27.9774082,76.0180344 27.9330917,76.0626596 C27.9330917,76.0626596 28.0662882,76.7293213 28.3329899,78.1515248 C28.6886334,80.1957648 28.8661465,81.7514734 28.8661465,82.9069751 C28.8661465,85.262542 28.5551282,87.795622 27.9330917,90.5068323 C27.0886082,94.3289192 25.9328596,96.1956461 24.5109648,96.1956461 C24.0218162,96.1956461 23.6219179,95.4401044 23.3551544,93.8847044 C23.1330162,92.8178358 23.0441362,91.7512758 23.0441362,90.684654 C25.1775648,87.0400803 26.2884413,83.6179534 26.2884413,80.4182117 C26.2884413,79.9736882 26.1995613,79.351343 26.1106196,78.6403648 C25.9327979,77.6623762 25.7552848,77.1292813 25.5328996,77.1292813 C25.3550779,77.1292813 25.0886848,77.1735979 24.7330413,77.2624779 C24.4220231,77.3513579 24.1553213,77.4402996 24.0663796,77.4402996 C23.0441362,77.6181213 21.932951,77.6624379 20.7774493,77.6624379 C16.1551955,77.6624379 12.6441886,76.1516013 10.2443052,73.0848093 C8.06656,70.3292824 7,66.5961372 7,61.8406869 C7,58.5071314 7.97768,53.8406228 9.93328689,47.7961655 C10.6888286,45.4852238 11.6665086,42.9075187 12.7776938,40.0631118 C13.9331955,37.3519014 15.0443807,34.5964363 16.1998207,31.8409094 C18.1997441,27.0411425 19.1774241,24.4631904 19.1331076,24.1967356 L16.3775807,1.79681532 C16.6442824,0.685938767 17.2220641,0.107910156 17.9776058,0.107910156 C18.3329407,0.107910156 18.9996024,0.463553601 19.9775293,1.1301536 C23.8884962,3.93024393 25.8441648,8.59681427 25.8441648,15.1743663 C25.8441648,18.3744167 24.8219213,22.4188887 22.777311,27.3521608 C22.288471,28.5965425 22.0217693,29.2188877 22.0217693,29.2188877 C22.0217693,30.2408842 22.288471,33.7518911 22.777311,39.7074683 C23.3107762,45.7961804 23.6217944,49.0408559 23.7995544,49.3961907 C24.8217979,48.2853142 26.0216162,47.3519507 27.4438196,46.596409 C29.0438448,45.7962421 30.5106734,45.3520273 31.8882517,45.3520273 C36.2885523,45.3519655 38.5106141,48.5962707 38.5106141,54.9960628 Z M21.755191,50.9072742 L20.2441076,33.974338 C18.0220458,38.90761 16.0221224,43.6630604 14.2442755,48.2852524 C11.4444938,55.4851497 10.0665452,60.15172 10.0665452,62.19596 C10.0665452,64.9514869 11.1331052,66.8182138 13.2665955,67.7515772 C13.3109121,67.7958938 13.8000607,67.9737155 14.7331155,68.2850424 C14.7331155,63.8406103 16.2441989,59.2183565 19.3110527,54.4183428 C19.8887727,53.6627393 20.688631,52.5072993 21.755191,50.9072742 Z M24.1996996,68.0625955 C23.8886813,65.8405338 23.5330379,62.4184069 23.0441979,57.8850331 C22.2443396,58.7737714 21.1331544,60.1959748 19.6663258,62.1516434 C18.1552424,64.7293486 17.4442641,66.9070938 17.4442641,68.6403155 C17.8887876,68.8181372 18.4665076,68.8627624 19.1331693,68.8627624 C20.110911,68.8627624 21.7998162,68.5960607 24.1996996,68.0625955 Z M22.8221213,14.285628 C22.8221213,13.707908 22.5107944,12.9523046 21.8887579,12.0635663 C21.2664127,11.1745194 20.7332562,10.7302429 20.2441076,10.7302429 C19.8887727,10.7302429 19.710951,11.0855777 19.710951,11.7522394 C19.710951,15.0854863 20.0665944,18.6854349 20.777511,22.5078304 C21.1774093,21.1299435 21.6219944,19.7523035 22.0218927,18.3744167 C22.5553579,16.5522532 22.8221213,15.1743663 22.8221213,14.285628 Z M35.2663089,54.8185497 C35.2663089,54.1962045 34.7774689,53.6627393 33.888422,53.2185245 C33.1328803,52.862881 32.421902,52.6850593 31.7106768,52.6850593 C30.866502,52.6850593 29.6218117,53.1738993 27.8442734,54.0629462 C25.9329213,55.0849428 24.9998665,55.9739897 24.9998665,56.6849062 C24.9998665,57.9739131 25.1330631,59.7071348 25.3552013,61.8405634 C25.6219031,64.5514652 25.7554082,66.2846869 25.8443499,67.0402286 C27.6218882,66.418192 29.6218117,64.6849703 31.844182,61.8405634 C34.1108072,58.9962183 35.2663089,56.6406514 35.2663089,54.8185497 Z" id="clef[treble]" fill="#000000" fill-rule="nonzero"></path>
                <use href="#scale" transform="translate(-103 -18)"></use>
                <line x1="1079.5" y1="26.1079102" x2="1079.5" y2="71.7079102" id="Line-2" stroke="#000000" stroke-width="2"></line>
            </g>
            <g id="c-major" transform="translate(0.000000, 532.892090)">
                <line x1="0" y1="26.5097656" x2="1080" y2="26.5097656" id="Line" stroke="#000000" fill="#000000" fill-rule="nonzero" stroke-linecap="square"></line>
                <line x1="189.5" y1="83.5844141" x2="213.5" y2="83.5844141" id="Line-Copy-3" stroke="#000000" fill="#000000" fill-rule="nonzero" stroke-linecap="square"></line>
                <line x1="0" y1="37.729707" x2="1080" y2="37.729707" id="Line" stroke="#000000" fill="#000000" fill-rule="nonzero" stroke-linecap="square"></line>
                <line x1="0" y1="48.9445508" x2="1080" y2="48.9445508" id="Line" stroke="#000000" fill="#000000" fill-rule="nonzero" stroke-linecap="square"></line>
                <line x1="0" y1="60.1593945" x2="1080" y2="60.1593945" id="Line" stroke="#000000" fill="#000000" fill-rule="nonzero" stroke-linecap="square"></line>
                <line x1="0" y1="71.3742383" x2="1080" y2="71.3742383" id="Line" stroke="#000000" fill="#000000" fill-rule="nonzero" stroke-linecap="square"></line>
                <path d="M38.5106141,54.9960628 C38.5106141,56.2850697 38.2884758,58.1961131 37.8439523,60.6848765 C37.3994289,63.3071452 36.9552141,65.1293086 36.5106289,66.1961772 C35.2662472,69.1292172 33.4884003,71.6625441 31.1328334,73.7070927 C30.5551134,74.2402493 29.5328082,74.9514744 28.1552299,75.8848379 C28.0663499,75.9737179 27.9774082,76.0180344 27.9330917,76.0626596 C27.9330917,76.0626596 28.0662882,76.7293213 28.3329899,78.1515248 C28.6886334,80.1957648 28.8661465,81.7514734 28.8661465,82.9069751 C28.8661465,85.262542 28.5551282,87.795622 27.9330917,90.5068323 C27.0886082,94.3289192 25.9328596,96.1956461 24.5109648,96.1956461 C24.0218162,96.1956461 23.6219179,95.4401044 23.3551544,93.8847044 C23.1330162,92.8178358 23.0441362,91.7512758 23.0441362,90.684654 C25.1775648,87.0400803 26.2884413,83.6179534 26.2884413,80.4182117 C26.2884413,79.9736882 26.1995613,79.351343 26.1106196,78.6403648 C25.9327979,77.6623762 25.7552848,77.1292813 25.5328996,77.1292813 C25.3550779,77.1292813 25.0886848,77.1735979 24.7330413,77.2624779 C24.4220231,77.3513579 24.1553213,77.4402996 24.0663796,77.4402996 C23.0441362,77.6181213 21.932951,77.6624379 20.7774493,77.6624379 C16.1551955,77.6624379 12.6441886,76.1516013 10.2443052,73.0848093 C8.06656,70.3292824 7,66.5961372 7,61.8406869 C7,58.5071314 7.97768,53.8406228 9.93328689,47.7961655 C10.6888286,45.4852238 11.6665086,42.9075187 12.7776938,40.0631118 C13.9331955,37.3519014 15.0443807,34.5964363 16.1998207,31.8409094 C18.1997441,27.0411425 19.1774241,24.4631904 19.1331076,24.1967356 L16.3775807,1.79681532 C16.6442824,0.685938767 17.2220641,0.107910156 17.9776058,0.107910156 C18.3329407,0.107910156 18.9996024,0.463553601 19.9775293,1.1301536 C23.8884962,3.93024393 25.8441648,8.59681427 25.8441648,15.1743663 C25.8441648,18.3744167 24.8219213,22.4188887 22.777311,27.3521608 C22.288471,28.5965425 22.0217693,29.2188877 22.0217693,29.2188877 C22.0217693,30.2408842 22.288471,33.7518911 22.777311,39.7074683 C23.3107762,45.7961804 23.6217944,49.0408559 23.7995544,49.3961907 C24.8217979,48.2853142 26.0216162,47.3519507 27.4438196,46.596409 C29.0438448,45.7962421 30.5106734,45.3520273 31.8882517,45.3520273 C36.2885523,45.3519655 38.5106141,48.5962707 38.5106141,54.9960628 Z M21.755191,50.9072742 L20.2441076,33.974338 C18.0220458,38.90761 16.0221224,43.6630604 14.2442755,48.2852524 C11.4444938,55.4851497 10.0665452,60.15172 10.0665452,62.19596 C10.0665452,64.9514869 11.1331052,66.8182138 13.2665955,67.7515772 C13.3109121,67.7958938 13.8000607,67.9737155 14.7331155,68.2850424 C14.7331155,63.8406103 16.2441989,59.2183565 19.3110527,54.4183428 C19.8887727,53.6627393 20.688631,52.5072993 21.755191,50.9072742 Z M24.1996996,68.0625955 C23.8886813,65.8405338 23.5330379,62.4184069 23.0441979,57.8850331 C22.2443396,58.7737714 21.1331544,60.1959748 19.6663258,62.1516434 C18.1552424,64.7293486 17.4442641,66.9070938 17.4442641,68.6403155 C17.8887876,68.8181372 18.4665076,68.8627624 19.1331693,68.8627624 C20.110911,68.8627624 21.7998162,68.5960607 24.1996996,68.0625955 Z M22.8221213,14.285628 C22.8221213,13.707908 22.5107944,12.9523046 21.8887579,12.0635663 C21.2664127,11.1745194 20.7332562,10.7302429 20.2441076,10.7302429 C19.8887727,10.7302429 19.710951,11.0855777 19.710951,11.7522394 C19.710951,15.0854863 20.0665944,18.6854349 20.777511,22.5078304 C21.1774093,21.1299435 21.6219944,19.7523035 22.0218927,18.3744167 C22.5553579,16.5522532 22.8221213,15.1743663 22.8221213,14.285628 Z M35.2663089,54.8185497 C35.2663089,54.1962045 34.7774689,53.6627393 33.888422,53.2185245 C33.1328803,52.862881 32.421902,52.6850593 31.7106768,52.6850593 C30.866502,52.6850593 29.6218117,53.1738993 27.8442734,54.0629462 C25.9329213,55.0849428 24.9998665,55.9739897 24.9998665,56.6849062 C24.9998665,57.9739131 25.1330631,59.7071348 25.3552013,61.8405634 C25.6219031,64.5514652 25.7554082,66.2846869 25.8443499,67.0402286 C27.6218882,66.418192 29.6218117,64.6849703 31.844182,61.8405634 C34.1108072,58.9962183 35.2663089,56.6406514 35.2663089,54.8185497 Z" id="clef[treble]" fill="#000000" fill-rule="nonzero"></path>
                <use href="#scale" transform="translate(-103 0)"></use>
                <line x1="1079.5" y1="26.1079102" x2="1079.5" y2="71.7079102" id="Line-2" stroke="#000000" stroke-width="2"></line>
            </g>
        </g>
    </g>
</svg>
