<?xml version="1.0" encoding="UTF-8"?>
<svg width="1190px" height="1684px" viewBox="0 0 1190 1684" version="1.1" xmlns="http://www.w3.org/2000/svg" xmlns:xlink="http://www.w3.org/1999/xlink">
    <title>A4 10 Stave Manuscript</title>
    <g id="A4-manuscript-10-stave" stroke="none" stroke-width="1" fill="none" fill-rule="evenodd" stroke-linecap="square">
        <path d="M55,210 L1135,210" id="Stroke-1" stroke="#000000" stroke-width="0.5"></path>
        <path d="M55,220 L1135,220" id="Stroke-3" stroke="#000000" stroke-width="0.5"></path>
        <path d="M55,230 L1135,230" id="Stroke-5" stroke="#000000" stroke-width="0.5"></path>
        <path d="M55,240 L1135,240" id="Stroke-7" stroke="#000000" stroke-width="0.5"></path>
        <path d="M55,250 L1135,250" id="Stroke-9" stroke="#000000" stroke-width="0.5"></path>
        <path d="M55,351 L1135,351" id="Stroke-11" stroke="#000000" stroke-width="0.5"></path>
        <path d="M55,361 L1135,361" id="Stroke-13" stroke="#000000" stroke-width="0.5"></path>
        <path d="M55,371 L1135,371" id="Stroke-15" stroke="#000000" stroke-width="0.5"></path>
        <path d="M55,381 L1135,381" id="Stroke-17" stroke="#000000" stroke-width="0.5"></path>
        <path d="M55,391 L1135,391" id="Stroke-19" stroke="#000000" stroke-width="0.5"></path>
        <path d="M55,492 L1135,492" id="Stroke-21" stroke="#000000" stroke-width="0.5"></path>
        <path d="M55,502 L1135,502" id="Stroke-23" stroke="#000000" stroke-width="0.5"></path>
        <path d="M55,512 L1135,512" id="Stroke-25" stroke="#000000" stroke-width="0.5"></path>
        <path d="M55,522 L1135,522" id="Stroke-27" stroke="#000000" stroke-width="0.5"></path>
        <path d="M55,532 L1135,532" id="Stroke-29" stroke="#000000" stroke-width="0.5"></path>
        <path d="M55,633 L1135,633" id="Stroke-31" stroke="#000000" stroke-width="0.5"></path>
        <path d="M55,643 L1135,643" id="Stroke-33" stroke="#000000" stroke-width="0.5"></path>
        <path d="M55,653 L1135,653" id="Stroke-35" stroke="#000000" stroke-width="0.5"></path>
        <path d="M55,663 L1135,663" id="Stroke-37" stroke="#000000" stroke-width="0.5"></path>
        <path d="M55,673 L1135,673" id="Stroke-39" stroke="#000000" stroke-width="0.5"></path>
        <path d="M55,774 L1135,774" id="Stroke-41" stroke="#000000" stroke-width="0.5"></path>
        <path d="M55,784 L1135,784" id="Stroke-43" stroke="#000000" stroke-width="0.5"></path>
        <path d="M55,794 L1135,794" id="Stroke-45" stroke="#000000" stroke-width="0.5"></path>
        <path d="M55,804 L1135,804" id="Stroke-47" stroke="#000000" stroke-width="0.5"></path>
        <path d="M55,814 L1135,814" id="Stroke-49" stroke="#000000" stroke-width="0.5"></path>
        <path d="M55,915 L1135,915" id="Stroke-51" stroke="#000000" stroke-width="0.5"></path>
        <path d="M55,925 L1135,925" id="Stroke-53" stroke="#000000" stroke-width="0.5"></path>
        <path d="M55,935 L1135,935" id="Stroke-55" stroke="#000000" stroke-width="0.5"></path>
        <path d="M55,945 L1135,945" id="Stroke-57" stroke="#000000" stroke-width="0.5"></path>
        <path d="M55,955 L1135,955" id="Stroke-59" stroke="#000000" stroke-width="0.5"></path>
        <path d="M55,1056 L1135,1056" id="Stroke-61" stroke="#000000" stroke-width="0.5"></path>
        <path d="M55,1066 L1135,1066" id="Stroke-63" stroke="#000000" stroke-width="0.5"></path>
        <path d="M55,1076 L1135,1076" id="Stroke-65" stroke="#000000" stroke-width="0.5"></path>
        <path d="M55,1086 L1135,1086" id="Stroke-67" stroke="#000000" stroke-width="0.5"></path>
        <path d="M55,1096 L1135,1096" id="Stroke-69" stroke="#000000" stroke-width="0.5"></path>
        <path d="M55,1197 L1135,1197" id="Stroke-71" stroke="#000000" stroke-width="0.5"></path>
        <path d="M55,1207 L1135,1207" id="Stroke-73" stroke="#000000" stroke-width="0.5"></path>
        <path d="M55,1217 L1135,1217" id="Stroke-75" stroke="#000000" stroke-width="0.5"></path>
        <path d="M55,1227 L1135,1227" id="Stroke-77" stroke="#000000" stroke-width="0.5"></path>
        <path d="M55,1237 L1135,1237" id="Stroke-79" stroke="#000000" stroke-width="0.5"></path>
        <path d="M55,1338 L1135,1338" id="Stroke-81" stroke="#000000" stroke-width="0.5"></path>
        <path d="M55,1348 L1135,1348" id="Stroke-83" stroke="#000000" stroke-width="0.5"></path>
        <path d="M55,1358 L1135,1358" id="Stroke-85" stroke="#000000" stroke-width="0.5"></path>
        <path d="M55,1368 L1135,1368" id="Stroke-87" stroke="#000000" stroke-width="0.5"></path>
        <path d="M55,1378 L1135,1378" id="Stroke-89" stroke="#000000" stroke-width="0.5"></path>
        <path d="M55,1479 L1135,1479" id="Stroke-91" stroke="#000000" stroke-width="0.5"></path>
        <path d="M55,1489 L1135,1489" id="Stroke-93" stroke="#000000" stroke-width="0.5"></path>
        <path d="M55,1499 L1135,1499" id="Stroke-95" stroke="#000000" stroke-width="0.5"></path>
        <path d="M55,1509 L1135,1509" id="Stroke-97" stroke="#000000" stroke-width="0.5"></path>
        <path d="M55,1519 L1135,1519" id="Stroke-99" stroke="#000000" stroke-width="0.5"></path>
    </g>
</svg>
