<?xml version="1.0" encoding="UTF-8"?>
<svg width="1190px" height="1684px" viewBox="0 0 1190 1684" version="1.1" xmlns="http://www.w3.org/2000/svg" xmlns:xlink="http://www.w3.org/1999/xlink">
    <title>11 Stave Manuscript</title>
    <g stroke="none" stroke-width="1" fill="none" fill-rule="evenodd" stroke-linecap="square">
        <path d="M55,169.375 L1135,169.375" id="Stroke-1" stroke="#000000" stroke-width="0.75"></path>
        <path d="M55,180.38 L1135,180.38" id="Stroke-3" stroke="#000000" stroke-width="0.75"></path>
        <path d="M55,191.38 L1135,191.38" id="Stroke-5" stroke="#000000" stroke-width="0.75"></path>
        <path d="M55,202.38 L1135,202.38" id="Stroke-7" stroke="#000000" stroke-width="0.75"></path>
        <path d="M55,213.38 L1135,213.38" id="Stroke-9" stroke="#000000" stroke-width="0.75"></path>
        <path d="M55,308.375 L1135,308.375" id="Stroke-11" stroke="#000000" stroke-width="0.75"></path>
        <path d="M55,319.38 L1135,319.38" id="Stroke-13" stroke="#000000" stroke-width="0.75"></path>
        <path d="M55,330.38 L1135,330.38" id="Stroke-15" stroke="#000000" stroke-width="0.75"></path>
        <path d="M55,341.38 L1135,341.38" id="Stroke-17" stroke="#000000" stroke-width="0.75"></path>
        <path d="M55,352.38 L1135,352.38" id="Stroke-19" stroke="#000000" stroke-width="0.75"></path>
        <path d="M55,447.375 L1135,447.375" id="Stroke-21" stroke="#000000" stroke-width="0.75"></path>
        <path d="M55,458.38 L1135,458.38" id="Stroke-23" stroke="#000000" stroke-width="0.75"></path>
        <path d="M55,469.38 L1135,469.38" id="Stroke-25" stroke="#000000" stroke-width="0.75"></path>
        <path d="M55,480.38 L1135,480.38" id="Stroke-27" stroke="#000000" stroke-width="0.75"></path>
        <path d="M55,491.38 L1135,491.38" id="Stroke-29" stroke="#000000" stroke-width="0.75"></path>
        <path d="M55,586.375 L1135,586.375" id="Stroke-31" stroke="#000000" stroke-width="0.75"></path>
        <path d="M55,597.38 L1135,597.38" id="Stroke-33" stroke="#000000" stroke-width="0.75"></path>
        <path d="M55,608.38 L1135,608.38" id="Stroke-35" stroke="#000000" stroke-width="0.75"></path>
        <path d="M55,619.38 L1135,619.38" id="Stroke-37" stroke="#000000" stroke-width="0.75"></path>
        <path d="M55,630.38 L1135,630.38" id="Stroke-39" stroke="#000000" stroke-width="0.75"></path>
        <path d="M55,725.375 L1135,725.375" id="Stroke-41" stroke="#000000" stroke-width="0.75"></path>
        <path d="M55,736.38 L1135,736.38" id="Stroke-43" stroke="#000000" stroke-width="0.75"></path>
        <path d="M55,747.38 L1135,747.38" id="Stroke-45" stroke="#000000" stroke-width="0.75"></path>
        <path d="M55,758.38 L1135,758.38" id="Stroke-47" stroke="#000000" stroke-width="0.75"></path>
        <path d="M55,769.38 L1135,769.38" id="Stroke-49" stroke="#000000" stroke-width="0.75"></path>
        <path d="M55,864.375 L1135,864.375" id="Stroke-51" stroke="#000000" stroke-width="0.75"></path>
        <path d="M55,875.38 L1135,875.38" id="Stroke-53" stroke="#000000" stroke-width="0.75"></path>
        <path d="M55,886.38 L1135,886.38" id="Stroke-55" stroke="#000000" stroke-width="0.75"></path>
        <path d="M55,897.38 L1135,897.38" id="Stroke-57" stroke="#000000" stroke-width="0.75"></path>
        <path d="M55,908.38 L1135,908.38" id="Stroke-59" stroke="#000000" stroke-width="0.75"></path>
        <path d="M55,1003.375 L1135,1003.375" id="Stroke-61" stroke="#000000" stroke-width="0.75"></path>
        <path d="M55,1014.38 L1135,1014.38" id="Stroke-63" stroke="#000000" stroke-width="0.75"></path>
        <path d="M55,1025.38 L1135,1025.38" id="Stroke-65" stroke="#000000" stroke-width="0.75"></path>
        <path d="M55,1036.38 L1135,1036.38" id="Stroke-67" stroke="#000000" stroke-width="0.75"></path>
        <path d="M55,1047.38 L1135,1047.38" id="Stroke-69" stroke="#000000" stroke-width="0.75"></path>
        <path d="M55,1142.375 L1135,1142.375" id="Stroke-71" stroke="#000000" stroke-width="0.75"></path>
        <path d="M55,1153.38 L1135,1153.38" id="Stroke-73" stroke="#000000" stroke-width="0.75"></path>
        <path d="M55,1164.38 L1135,1164.38" id="Stroke-75" stroke="#000000" stroke-width="0.75"></path>
        <path d="M55,1175.38 L1135,1175.38" id="Stroke-77" stroke="#000000" stroke-width="0.75"></path>
        <path d="M55,1186.38 L1135,1186.38" id="Stroke-79" stroke="#000000" stroke-width="0.75"></path>
        <path d="M55,1281.375 L1135,1281.375" id="Stroke-81" stroke="#000000" stroke-width="0.75"></path>
        <path d="M55,1292.38 L1135,1292.38" id="Stroke-83" stroke="#000000" stroke-width="0.75"></path>
        <path d="M55,1303.38 L1135,1303.38" id="Stroke-85" stroke="#000000" stroke-width="0.75"></path>
        <path d="M55,1314.38 L1135,1314.38" id="Stroke-87" stroke="#000000" stroke-width="0.75"></path>
        <path d="M55,1325.38 L1135,1325.38" id="Stroke-89" stroke="#000000" stroke-width="0.75"></path>
        <path d="M55,1420.375 L1135,1420.375" id="Stroke-91" stroke="#000000" stroke-width="0.75"></path>
        <path d="M55,1431.38 L1135,1431.38" id="Stroke-93" stroke="#000000" stroke-width="0.75"></path>
        <path d="M55,1442.38 L1135,1442.38" id="Stroke-95" stroke="#000000" stroke-width="0.75"></path>
        <path d="M55,1453.38 L1135,1453.38" id="Stroke-97" stroke="#000000" stroke-width="0.75"></path>
        <path d="M55,1464.38 L1135,1464.38" id="Stroke-99" stroke="#000000" stroke-width="0.75"></path>
        <path d="M55,1564.375 L1135,1564.375" id="Stroke-101" stroke="#000000" stroke-width="0.75"></path>
        <path d="M55,1575.38 L1135,1575.38" id="Stroke-103" stroke="#000000" stroke-width="0.75"></path>
        <path d="M55,1586.38 L1135,1586.38" id="Stroke-105" stroke="#000000" stroke-width="0.75"></path>
        <path d="M55,1597.38 L1135,1597.38" id="Stroke-107" stroke="#000000" stroke-width="0.75"></path>
        <path d="M55,1608.38 L1135,1608.38" id="Stroke-109" stroke="#000000" stroke-width="0.75"></path>
    </g>
</svg>
